<?xml version="1.0" encoding="utf-8"?>
<!-- Generator: Adobe Illustrator 26.0.3, SVG Export Plug-In . SVG Version: 6.00 Build 0)  -->
<svg version="1.0" id="katman_1" xmlns="http://www.w3.org/2000/svg" xmlns:xlink="http://www.w3.org/1999/xlink" x="0px" y="0px"
	 viewBox="0 0 800 600" style="enable-background:new 0 0 800 600;" xml:space="preserve">
<style type="text/css">
	.st0{fill:#1D1D1B;}
</style>
<path class="st0" d="M270.6,293.1c2.1-1.5,3.8-3.3,5.1-5.3c1.6-2.6,2.4-5.5,2.4-8.6c0-3.7-0.9-7.1-2.6-10.1c-1.7-3-4.2-5.5-7.5-7.4
	c-1.9-1.1-4.3-2-7.2-2.5c-2.8-0.5-6.7-0.7-11.5-0.7h-18v75h27.3c6.9,0,12.8-2.1,17.4-6.1c4.7-4.1,7.1-9.2,7.1-15.3
	c0-4.8-1.2-9-3.7-12.2C277.5,296.9,274.5,294.7,270.6,293.1z M263.7,287.1c-2.2,1.9-5.3,2.8-9.5,2.8h-11.6v-21.3h10.9
	c4.5,0,7.9,0.9,10.1,2.7c2.2,1.8,3.2,4.4,3.2,8C266.9,282.7,265.9,285.3,263.7,287.1z M242.7,300.2h13.8c5.1,0,9,1,11.5,2.9
	c2.5,1.9,3.7,4.6,3.7,8.4c0,3.8-1.2,6.6-3.8,8.5c-2.6,1.9-6.6,2.9-11.8,2.9h-13.4L242.7,300.2L242.7,300.2z"/>
<path class="st0" d="M359.2,269.1h-10.8v12.2h-8.6H332h-3.9l-13.3,32.4c-0.2,0.5-0.7,1.7-1.3,3.6c-0.4,1.1-0.8,2.4-1.2,3.8
	c-0.4-1.5-0.8-2.8-1.2-3.9c-0.8-2.4-1.1-3.1-1.2-3.4l-13.1-32.4H285l21.3,51.1l-9.2,21.8h11l27.8-63.6h12.7v31.4
	c0,4.5,1.1,7.7,3.1,9.7c2.1,1.9,5.5,3,10.2,3h5.9v-10.3h-5.6c-1.1,0-1.8-0.2-2.2-0.7c-0.4-0.5-0.7-1.4-0.7-2.6v-30.3h8.5v-9.4h-8.5
	V269.1z"/>
<path class="st0" d="M399.4,280.1c-7.9,0-14.4,2.6-19.3,7.7c-4.9,5.1-7.4,11.8-7.4,20c0,3.5,0.6,6.8,1.8,10c1.2,3.2,2.9,6,5.1,8.4
	c2.5,2.7,5.6,4.9,9.1,6.4c3.5,1.5,7.3,2.2,11.4,2.2c4.9,0,9.3-0.9,13.2-2.7c3.9-1.8,7.5-4.7,10.8-8.5l0.6-0.7l-7.8-6.3l-0.6,0.7
	c-2.2,2.6-4.7,4.5-7.4,5.8c-2.7,1.3-5.5,2-8.6,2c-4.8,0-8.8-1.4-11.9-4.1c-2.9-2.5-4.5-5.6-4.9-9.5h42.9v-1.6c0-8.8-2.5-16-7.5-21.4
	C414,282.8,407.4,280.1,399.4,280.1z M388.6,293.6c2.9-2.5,6.5-3.8,10.7-3.8c4.1,0,7.6,1.2,10.4,3.7c2.6,2.3,4.2,5.2,4.9,8.7h-31
	C384.2,298.8,385.9,295.9,388.6,293.6z"/>
<path class="st0" d="M486,268c-7.2-6.3-17.9-9.5-31.7-9.5h-16v75h16c13.8,0,24.5-3.2,31.7-9.5c7.3-6.4,11-15.8,11-27.9
	C497,283.8,493.2,274.4,486,268z M455.7,323h-6v-54h6c9.9,0,17.4,2.3,22.4,6.8c4.9,4.5,7.4,11.3,7.4,20.2c0,8.9-2.5,15.7-7.4,20.2
	C473.1,320.7,465.6,323,455.7,323z"/>
<path class="st0" d="M545.7,287.9c-2-2.1-4.3-3.8-6.8-5.1c-3.3-1.6-7-2.4-10.9-2.4c-7.9,0-14.2,2.5-19,7.4
	c-4.8,4.9-7.2,11.5-7.2,19.4c0,3.7,0.6,7.1,1.8,10.3c1.2,3.1,3.1,6,5.5,8.6c2.5,2.6,5.5,4.6,8.7,6c3.2,1.4,6.7,2,10.3,2
	c4,0,7.7-0.8,10.8-2.3c2.4-1.2,4.5-2.8,6.3-4.8v6.5h10.7v-52.1h-10V287.9z M540.9,294.9c3.1,3.2,4.6,7.4,4.6,12.4
	c0,5-1.6,9.2-4.6,12.4c-3.1,3.2-7,4.8-11.8,4.8s-8.7-1.6-11.8-4.8c-3.1-3.2-4.6-7.3-4.6-12.4c0-5,1.6-9.2,4.6-12.4
	c3.1-3.2,7-4.8,11.8-4.8S537.8,291.7,540.9,294.9z"/>
<path class="st0" d="M588.6,280.3c-2.9,0-5.7,0.6-8.2,1.8c-1.9,0.9-3.8,2.1-5.6,3.7v-4.5h-10.6v52.1h10.6v-28.8
	c0-4.9,1.1-8.7,3.1-11.1c2-2.4,5.1-3.6,9.2-3.6c3.6,0,6.1,1.1,7.8,3.3c1.7,2.3,2.5,6,2.5,11v29.2h10.7v-30.1
	c0-7.1-1.7-12.7-5.2-16.8C599.4,282.5,594.6,280.3,588.6,280.3z"/>
<path class="st0" d="M650.9,319.7c-1.3,1.7-2.9,3-4.8,3.9c-1.9,0.9-4.1,1.3-6.6,1.3c-4.6,0-8.3-1.6-11.2-4.8
	c-2.9-3.2-4.3-7.5-4.3-12.6c0-5.2,1.5-9.4,4.4-12.7c2.9-3.3,6.5-4.9,11.1-4.9c2.3,0,4.4,0.4,6.3,1.2c1.8,0.8,3.4,2,4.8,3.6l0.7,0.8
	l6.9-8l-0.7-0.6c-2.4-2.2-5.2-3.9-8.1-5c-2.9-1.1-6.3-1.6-9.9-1.6c-3.8,0-7.4,0.7-10.6,1.9c-3.2,1.3-6.1,3.2-8.4,5.7
	c-2.5,2.6-4.5,5.6-5.7,8.9c-1.3,3.3-2,7-2,10.9c0,3.9,0.7,7.5,2,10.8c1.3,3.3,3.2,6.3,5.7,8.9c2.4,2.4,5.2,4.4,8.5,5.6
	c3.2,1.3,6.8,1.9,10.6,1.9c3.7,0,7.1-0.6,10-1.7c3-1.1,5.8-3,8.5-5.4l0.7-0.6l-7.1-8.2L650.9,319.7z"/>
<path class="st0" d="M716.7,309.7c0-8.8-2.5-16-7.5-21.4c-5-5.4-11.6-8.2-19.6-8.2c-7.9,0-14.4,2.6-19.3,7.7
	c-4.9,5.1-7.4,11.8-7.4,20c0,3.5,0.6,6.8,1.8,10c1.2,3.2,2.9,6,5.1,8.4c2.5,2.7,5.6,4.9,9.1,6.4c3.5,1.5,7.3,2.2,11.4,2.2
	c4.9,0,9.3-0.9,13.2-2.7c3.9-1.8,7.5-4.7,10.8-8.5l0.6-0.7l-7.8-6.3l-0.6,0.7c-2.2,2.6-4.7,4.5-7.4,5.8s-5.5,2-8.6,2
	c-4.8,0-8.8-1.4-11.9-4.1c-2.9-2.5-4.5-5.6-4.9-9.5h42.9L716.7,309.7L716.7,309.7z M678.8,293.6c2.9-2.5,6.5-3.8,10.7-3.8
	c4.1,0,7.6,1.2,10.4,3.7c2.6,2.3,4.2,5.2,4.9,8.7h-31C674.5,298.8,676.2,295.9,678.8,293.6z"/>
<path class="st0" d="M102,332.6l-19.1,4.9V250L102,255V332.6z"/>
<path class="st0" d="M194.2,337.7l-19.1,4.9v-97.7l19.1,4.9V337.7z"/>
<path class="st0" d="M132.3,335.2l-19.1,4.9v-51.5l19.1,4.9V335.2z"/>
<path class="st0" d="M144.8,281l19.1-4.9v51.5l-19.1-4.9V281z"/>
</svg>
