<?xml version="1.0" encoding="utf-8"?>
<svg viewBox="75.3675 273.2747 120.668 56.3903" xmlns="http://www.w3.org/2000/svg">
  <g transform="matrix(1, 0, 0, 1, 17.730495452880852, 5.6737589836120605)">
    <path style="fill:#eb5e00;" d="M81.107,309.491c-0.567,0.337-1.12,0.666-1.66,0.988c-1.119,0.568-2.135,1.224-3.182,1.717&#10;&#9;&#9;&#9;&#9;c-1.031,0.53-2.017,1.065-3.011,1.519c-0.492,0.245-0.978,0.486-1.459,0.725c-0.49,0.221-0.976,0.44-1.459,0.658&#10;&#9;&#9;&#9;&#9;c-3.876,1.756-7.705,3.383-12.699,4.707c5.021,1.174,9.567,1.43,14.256,0.801c0.588-0.089,1.179-0.179,1.775-0.269&#10;&#9;&#9;&#9;&#9;c0.59-0.122,1.182-0.263,1.784-0.406c1.214-0.264,2.423-0.658,3.676-1.094c1.269-0.4,2.507-1.01,3.84-1.583&#10;&#9;&#9;&#9;&#9;c0.65-0.319,1.302-0.673,1.975-1.031c0.677-0.35,1.356-0.739,2.028-1.18c0.38-0.241,0.826-0.523,1.323-0.838&#10;&#9;&#9;&#9;&#9;c0.067,0.074,0.121,0.144,0.19,0.219c1.619,1.737,3.75,3.647,6.465,5.286c2.697,1.644,5.981,3.059,9.654,3.735&#10;&#9;&#9;&#9;&#9;c3.648,0.731,7.581,0.701,11.401,0.073c3.819-0.658,7.524-1.904,10.927-3.542c3.396-1.626,6.554-3.655,9.265-5.774&#10;&#9;&#9;&#9;&#9;c2.733-2.115,5.121-4.306,7.177-6.355c3.376-3.365,5.852-6.216,7.808-8.437c1.924-2.215,3.339-3.844,4.31-4.962&#10;&#9;&#9;&#9;&#9;c3.886-4.474,6.734-7.986,9.483-11.334c0.327-0.393,0.651-0.786,0.976-1.177c-0.588,2.124-1.088,3.96-1.303,4.795&#10;&#9;&#9;&#9;&#9;c-0.67,2.599,0.228,4.388,1.952,7.263c3.044-1.424,4.769-2.576,5.56-5.159c0.392-1.28,1.399-4.919,2.341-8.325&#10;&#9;&#9;&#9;&#9;c0.354-1.259,0.702-2.499,1.029-3.66c0.454-1.58,0.89-3.06,1.294-4.365c0.786-2.591,1.345-4.433,1.482-4.885&#10;&#9;&#9;&#9;&#9;c-2.804,0.412-3.024,0.444-3.024,0.444s-5.776,0.834-12.128,1.75c-3.974,0.573-8.307,1.208-9.744,1.451&#10;&#9;&#9;&#9;&#9;c-2.654,0.45-3.97,2.005-5.834,4.796c2.586,2.14,4.292,3.253,6.964,2.922c1.275-0.158,4.792-0.669,8.328-1.192&#10;&#9;&#9;&#9;&#9;c-0.576,0.348-1.147,0.705-1.71,1.079c-3.878,2.595-7.505,5.914-11.523,10.448c-0.978,1.113-2.402,2.736-4.339,4.942&#10;&#9;&#9;&#9;&#9;c-1.927,2.177-4.329,4.926-7.449,8.029c-3.804,3.779-8.628,7.915-14.306,10.621c-2.832,1.367-5.849,2.368-8.841,2.888&#10;&#9;&#9;&#9;&#9;c-2.99,0.489-5.944,0.506-8.614-0.031c-2.668-0.479-5.07-1.512-7.07-2.726c-1.855-1.113-3.327-2.402-4.484-3.594&#10;&#9;&#9;&#9;&#9;c0.83-0.737,1.721-1.571,2.677-2.529c1.96-1.914,4.002-4.396,6.06-7.269c1.008-1.47,2.025-3.107,2.884-5.008&#10;&#9;&#9;&#9;&#9;c0.855-1.891,1.559-4.072,1.764-6.476c0.227-2.472-0.2-5.102-1.306-7.459c-1.092-2.354-2.984-4.651-5.723-5.953&#10;&#9;&#9;&#9;&#9;c-0.68-0.32-1.389-0.568-2.105-0.728c-0.705-0.211-1.46-0.253-2.2-0.317c-1.474-0.016-2.966,0.19-4.24,0.691&#10;&#9;&#9;&#9;&#9;c-2.627,0.931-4.534,2.562-6.091,4.245c-1.546,1.711-2.694,3.586-3.537,5.554c-0.204,0.496-0.415,0.982-0.57,1.497&#10;&#9;&#9;&#9;&#9;c-0.176,0.515-0.325,1.01-0.432,1.465c-0.251,0.931-0.433,1.857-0.575,2.764c-0.583,3.635-0.38,6.971,0.083,9.703&#10;&#9;&#9;&#9;&#9;c0.477,2.738,1.242,4.88,1.838,6.325c0.299,0.724,0.556,1.277,0.747,1.645c0.032,0.066,0.059,0.119,0.086,0.173&#10;&#9;&#9;&#9;&#9;c-0.39,0.251-0.746,0.48-1.051,0.675C82.26,308.818,81.681,309.167,81.107,309.491z M88.864,291.126&#10;&#9;&#9;&#9;&#9;c0.105-0.662,0.237-1.337,0.421-2.009c0.082-0.355,0.18-0.662,0.28-0.948c0.083-0.3,0.222-0.596,0.343-0.898&#10;&#9;&#9;&#9;&#9;c0.51-1.202,1.255-2.406,2.162-3.395c0.896-0.979,1.955-1.806,2.911-2.107c0.48-0.21,0.908-0.206,1.323-0.234&#10;&#9;&#9;&#9;&#9;c0.393,0.039,0.852,0.12,1.21,0.294c0.733,0.338,1.477,1.113,1.97,2.179c0.498,1.076,0.713,2.28,0.595,3.478&#10;&#9;&#9;&#9;&#9;c-0.207,2.558-1.613,5.272-3.292,7.695c-1.747,2.423-3.483,4.564-5.163,6.203c-0.498,0.5-0.972,0.956-1.43,1.384&#10;&#9;&#9;&#9;&#9;c-0.423-1.055-0.945-2.561-1.278-4.489C88.579,296.258,88.43,293.78,88.864,291.126z"/>
  </g>
</svg>