<?xml version="1.0" encoding="UTF-8" standalone="no"?>
<!-- Created with Inkscape (http://www.inkscape.org/) -->

<svg
   version="1.1"
   id="svg2"
   width="3465.3333"
   height="2310.6667"
   viewBox="0 0 3465.3333 2310.6667"
   sodipodi:docname="89158358_GIU AMA 199-13.eps"
   xmlns:inkscape="http://www.inkscape.org/namespaces/inkscape"
   xmlns:sodipodi="http://sodipodi.sourceforge.net/DTD/sodipodi-0.dtd"
   xmlns="http://www.w3.org/2000/svg"
   xmlns:svg="http://www.w3.org/2000/svg">
  <defs
     id="defs6" />
  <sodipodi:namedview
     id="namedview4"
     pagecolor="#ffffff"
     bordercolor="#000000"
     borderopacity="0.25"
     inkscape:showpageshadow="2"
     inkscape:pageopacity="0.0"
     inkscape:pagecheckerboard="0"
     inkscape:deskcolor="#d1d1d1" />
  <g
     id="g8"
     inkscape:groupmode="layer"
     inkscape:label="ink_ext_XXXXXX"
     transform="matrix(1.3333333,0,0,-1.3333333,0,2310.6667)">
    <g
       id="g10"
       transform="scale(0.1)">
      <path
         d="m 12309,6704.5 c 143.1,262.6 138,638.43 60.4,933.23 -171.9,652.82 -890.9,1509.26 -1168,1700.63 -74.6,-328.4 -24.8,-1445.47 290.2,-2042.56 98.6,-186.7 249,-378.6 426.2,-510.9 -382.4,82.2 -761.8,174.9 -1137.7,278.8 173.1,247.3 205.8,626.96 156.6,931.42 -107.6,666.44 -740,1588.63 -997.29,1806.05 -106.13,-319.65 -165,-1436.29 90.59,-2061.13 85,-207.97 228,-427.44 406.5,-577.94 -90.5,26.9 -180.9,54.3 -271,82.5 -207.8,70.5 -415.7,140.01 -624.13,207.63 l -198.36,73.98 c 153.28,238.95 194.84,584.02 162.97,867.93 -75.24,670.86 -662.11,1622.66 -908.48,1852.26 -121.52,-314.06 -234.53,-1426.52 -9.61,-2063 56.6,-160.12 145.94,-328.4 259.92,-469.61 l -530.23,217.73 -513.63,234.38 c 168.2,191.29 235.66,503.63 227.85,763.01 -17.54,576.64 -451.29,1427.99 -645.2,1640.69 -125.31,-259.1 -298.75,-1198.74 -151.4,-1756.44 44.06,-166.71 126.68,-346.32 240.43,-487.93 l -344.5,170.63 -577.26,314.02 -86.06,50.63 c 169.81,188.08 242.82,496.72 240.32,754.57 -5.47,576.82 -421.53,1437.02 -610.98,1653.62 -130.67,-256.4 -323.52,-1192.2 -187.77,-1752.88 35.74,-147.66 101.25,-305.98 192.07,-439.96 l -114.26,67.15 c -183.95,119.06 -369.18,236.25 -554.89,353.24 -39.92,26.45 -79.72,53.05 -119.45,79.8 143.56,151.68 231.53,384.57 260.9,589.85 74.18,518.5 -181.17,1347.6 -321.45,1568 -152.46,-212.2 -453.98,-1025.7 -409.1,-1547.5 9.46,-109.6 34.96,-227.96 76.96,-338.74 -197.74,140.39 -392.86,284.64 -585.63,432.44 160.94,131.7 249.1,381.1 268.24,593.4 41.21,456.2 -219.61,1168.8 -352.18,1354.9 -123.44,-192.3 -349.77,-916.5 -286.8,-1370.2 18.16,-130.9 63.51,-274.8 135.16,-394.7 -114.07,90.1 -227.19,181.5 -339.54,274 16.22,199.3 -101.71,426.1 -238.94,579 -291.02,324 -955.98,603.7 -1171.45,631.9 53.95,-210.5 411.76,-836.9 768.44,-1086.8 169.61,-118.7 411.6,-209 608.4,-166.4 97.03,-95.3 195.7,-188.9 295.82,-281.1 -125.35,29.9 -263.36,31.6 -383.48,13.5 -430.66,-65 -1029.84,-466.7 -1171.83,-631.15 205.51,-70.67 925.47,-116.18 1330.23,44.45 176.02,69.84 365.24,203.3 451.92,369.2 222.69,-195.8 452.07,-384.24 687.22,-565.41 -155.7,18.12 -325.23,-4.69 -467.22,-49.81 -470.94,-149.57 -1070.63,-706.48 -1200.36,-916.05 242.82,-42.5 1057.54,34.84 1482.47,287.03 182.89,108.48 369.17,289.18 438.39,488.05 47.35,-34.81 94.85,-69.38 142.58,-103.64 182.31,-126.05 365,-251.91 549.06,-375.82 l 89.81,-55.78 c -145.47,-8.51 -293.56,-46.01 -419.3,-98.55 -502.54,-209.92 -1106.99,-879.53 -1229.1,-1122.27 270.7,-23.08 1157.77,140.86 1599.84,458.99 176.88,127.22 351.02,323.28 420.2,531.13 l 104.1,-64.65 581.33,-324.61 237.97,-120.23 C 7140.82,8164.3 7016.8,8130.35 6909.18,8085.39 6406.6,7875.47 5802.15,7205.9 5680.04,6963.1 c 270.7,-23.1 1157.77,140.9 1599.84,459.01 179.42,129.06 356.02,328.91 423.09,539.96 l 526.87,-235.55 558.44,-222.5 C 8644.26,7490.78 8499.8,7452.46 8375.55,7400.55 7832.62,7173.8 7179.61,6450.4 7047.66,6188.1 c 292.46,-24.9 1250.82,152.2 1728.43,495.8 214.5,154.4 425.16,402.3 476.06,656.76 l 225.47,-77.86 c 212.3,-64.6 425.08,-127.3 637.98,-189.1 60.7,-16.5 121.5,-32.6 182.4,-48.3 -146.8,-35.6 -290.5,-99 -410.03,-173.6 C 9388.71,6540.4 8860.98,5721.1 8773.09,5441 c 292.65,22.6 1209.88,352 1625.81,768.2 181.9,182 345.9,451.1 362.9,704.5 379.1,-84.6 761.5,-153.3 1145.7,-204.7 -168.2,-31.1 -336.4,-101.8 -473,-187 -499.2,-311.5 -1027,-1130.8 -1114.9,-1410.8 292.7,22.5 1209.9,352 1625.8,768.2 200.7,200.8 379.6,507.5 363.2,782.4 140.1,-14.3 280.3,-26.1 420.7,-35.5 -140.4,24.8 -280.5,50.8 -420.3,78.2"
         style="fill:#242033;fill-opacity:1;fill-rule:nonzero;stroke:none"
         id="path12" />
      <path
         d="m 22342.5,10427.6 c -120.2,18.1 -258.2,16.4 -383.5,-13.5 100.1,92.2 198.8,185.8 295.9,281.1 196.7,-42.6 438.7,47.7 608.3,166.4 356.7,249.9 714.5,876.3 768.4,1086.8 -215.3,-28.2 -880.3,-307.9 -1171.3,-631.9 -137.3,-152.9 -255.3,-379.7 -239,-579 -112.3,-92.6 -225.5,-183.9 -339.5,-274 71.6,119.9 116.9,263.8 135.1,394.7 62.9,453.7 -163.3,1177.9 -286.8,1370.2 -132.6,-186.1 -393.4,-898.7 -352.2,-1354.9 19.2,-212.3 107.3,-461.7 268.3,-593.4 -192.8,-147.8 -388,-292.05 -585.7,-432.44 42.1,110.78 67.5,229.14 77,338.74 44.9,521.8 -256.7,1335.3 -409.1,1547.5 -140.3,-220.4 -395.6,-1049.5 -321.4,-1568 29.3,-205.28 117.3,-438.17 260.9,-589.85 -39.8,-26.75 -79.6,-53.35 -119.5,-79.8 -185.7,-116.99 -371,-234.18 -554.9,-353.24 l -114.3,-67.19 c 90.9,133.98 156.3,292.34 192.1,440 135.8,560.68 -57.1,1496.48 -187.7,1752.88 -189.5,-216.6 -605.5,-1076.8 -611,-1653.62 -2.5,-257.85 70.5,-566.49 240.3,-754.61 l -86.1,-50.59 -577.3,-314.02 -344.4,-170.59 c 113.7,141.57 196.3,321.21 240.4,487.89 147.4,557.7 -26,1497.34 -151.4,1756.44 -193.9,-212.7 -627.7,-1064.05 -645.2,-1640.69 -7.8,-259.38 59.6,-571.72 227.9,-763.01 l -513.7,-234.38 -530.2,-217.73 c 114,141.21 203.3,309.49 260,469.61 224.8,636.48 111.8,1748.94 -9.7,2063 -246.4,-229.6 -833.3,-1181.4 -908.5,-1852.26 -31.8,-283.91 9.7,-628.98 163.1,-867.93 l -198.4,-73.98 c -208.5,-67.62 -416.4,-137.13 -624.2,-207.63 -90.1,-28.2 -180.4,-55.6 -271,-82.5 178.5,150.5 321.4,369.97 406.5,577.94 255.6,624.84 196.8,1741.48 90.6,2061.13 -257.2,-217.42 -889.7,-1139.61 -997.4,-1806.05 -49.1,-304.46 -16.5,-684.12 156.6,-931.42 -375.9,-103.9 -755.3,-196.6 -1137.6,-278.8 177.2,132.3 327.6,324.2 426.2,510.9 315,597.09 364.8,1714.16 290.2,2042.56 -277.1,-191.37 -996.1,-1047.81 -1168,-1700.63 -77.6,-294.8 -82.7,-670.63 60.4,-933.23 -139.8,-27.4 -279.9,-53.4 -420.4,-78.2 140.4,9.4 280.7,21.2 420.8,35.5 -16.4,-274.9 162.5,-581.6 363.2,-782.4 415.9,-416.2 1333.1,-745.7 1625.8,-768.2 -87.9,280 -615.7,1099.3 -1114.8,1410.8 -136.7,85.2 -304.9,155.9 -473.2,187 384.3,51.4 766.7,120.1 1145.9,204.7 16.9,-253.4 181,-522.5 362.8,-704.5 415.9,-416.2 1333.1,-745.6 1625.8,-768.2 -87.9,280.1 -615.6,1099.4 -1114.9,1410.8 -119.4,74.6 -263.2,138 -410,173.6 60.9,15.7 121.7,31.8 182.5,48.3 212.8,61.8 425.6,124.5 637.9,189.1 l 225.5,77.86 c 50.8,-254.46 261.6,-502.36 476,-656.76 477.6,-343.6 1435.9,-520.7 1728.4,-495.8 -131.9,262.3 -784.9,985.7 -1327.8,1212.45 -124.3,51.91 -268.8,90.23 -412.8,103.47 l 558.4,222.5 526.9,235.59 c 67.1,-211.09 243.7,-410.94 423,-540 442.2,-318.11 1329.2,-482.11 1600,-459.01 -122.2,242.8 -726.6,912.37 -1229.1,1122.29 -107.7,44.96 -231.7,78.91 -356.3,93.09 l 237.9,120.23 581.3,324.61 104.1,64.65 c 69.2,-207.85 243.3,-403.91 420.2,-531.13 442.1,-318.13 1329.2,-482.07 1599.8,-458.99 -122.1,242.74 -726.5,912.35 -1229.1,1122.27 -125.7,52.54 -273.8,90.04 -419.3,98.55 l 89.8,55.78 c 184.1,123.91 366.7,249.77 549.1,375.82 47.7,34.26 95.2,68.79 142.5,103.64 69.3,-198.87 255.6,-379.57 438.4,-488.05 424.9,-252.19 1239.7,-329.53 1482.5,-287.03 -129.7,209.57 -729.4,766.48 -1200.4,916.05 -141.9,45.12 -311.4,67.93 -467.2,49.81 235.2,181.17 464.6,369.61 687.3,565.41 86.7,-165.9 275.9,-299.36 451.8,-369.2 404.8,-160.63 1124.8,-115.12 1330.3,-44.45 -142,164.45 -741.1,566.15 -1171.8,631.15"
         style="fill:#242033;fill-opacity:1;fill-rule:nonzero;stroke:none"
         id="path14" />
    </g>
  </g>
</svg>
