<?xml version="1.0" encoding="utf-8"?>
<svg viewBox="250.1598 655.3333 188.1297 188.1297" xmlns="http://www.w3.org/2000/svg">
  <g transform="matrix(1.9675410929964565, 0, 0, 1.9675410929964565, 250.15980671604353, 655.3333089366761)">
    <svg viewBox="0 0 95.61667172011661 95.61667172011661" height="95.61667172011661" width="95.61667172011661">
      <g>
        <svg xmlns="http://www.w3.org/2000/svg" version="1.1" x="0" y="0" viewBox="5 5 90 90" enable-background="new 0 0 100 100" height="95.61667172011661" width="95.61667172011661" class="icon-icon-0" data-fill-palette-color="accent" id="icon-0">
          <path fill="#000000" d="M23.044 60.786c4.996 0.757 13.474 1.356 22.079-1.112l-0.531-0.307c-4.937-2.85-9.354-6.844-13.126-11.87-3.144-4.188-5.778-8.989-7.828-14.27-1.228-3.163-2.185-6.377-2.829-9.333-6.2 6.928-9.972 16.076-9.972 26.105 0 2.694 0.272 5.325 0.79 7.866C14.496 58.962 18.357 60.076 23.044 60.786z" data-fill-palette-color="accent"/>
          <path fill="#000000" d="M27.181 32.049c1.843 4.705 5.563 12.347 12.002 18.565V50c0-13.993 7.619-25.564 12.16-31.217 2.127-2.648 4.435-5.086 6.676-7.124-2.589-0.539-5.271-0.823-8.02-0.823-9.977 0-19.081 3.733-25.996 9.876C24.489 23.743 25.454 27.64 27.181 32.049z" data-fill-palette-color="accent"/>
          <path fill="#000000" d="M54.137 21.263c-3.153 3.948-7.911 10.991-10.076 19.677l0.531-0.307c12.118-6.996 25.949-6.184 33.114-5.077 3.357 0.519 6.624 1.298 9.509 2.221C83.359 26.03 74.1 16.736 62.376 12.834 59.991 14.77 57.095 17.558 54.137 21.263z" data-fill-palette-color="accent"/>
          <path fill="#000000" d="M76.956 39.214c-4.996-0.757-13.474-1.356-22.079 1.112l0.532 0.307c4.937 2.85 9.354 6.844 13.126 11.87 3.144 4.188 5.778 8.989 7.828 14.27 1.228 3.163 2.185 6.377 2.829 9.334 6.2-6.929 9.972-16.076 9.972-26.105 0-2.694-0.272-5.325-0.791-7.866C85.505 41.038 81.643 39.924 76.956 39.214z" data-fill-palette-color="accent"/>
          <path fill="#000000" d="M72.819 67.951c-1.843-4.705-5.563-12.347-12.002-18.565V50c0 13.993-7.619 25.564-12.16 31.217-2.127 2.648-4.435 5.086-6.676 7.124 2.589 0.539 5.271 0.823 8.02 0.823 9.977 0 19.081-3.733 25.997-9.876C75.511 76.257 74.546 72.36 72.819 67.951z" data-fill-palette-color="accent"/>
          <path fill="#000000" d="M45.863 78.737c3.153-3.948 7.911-10.991 10.076-19.677l-0.531 0.307c-7.918 4.571-16.567 5.809-23.611 5.809-3.736 0-7.02-0.348-9.504-0.732-3.357-0.519-6.624-1.298-9.509-2.221 3.856 11.746 13.115 21.04 24.84 24.942C40.008 85.23 42.905 82.442 45.863 78.737z" data-fill-palette-color="accent"/>
          <path fill="#000000" d="M50 95C25.187 95 5 74.813 5 50S25.187 5 50 5s45 20.187 45 45S74.813 95 50 95zM50 7.735C26.695 7.735 7.735 26.695 7.735 50S26.695 92.265 50 92.265 92.265 73.305 92.265 50 73.305 7.735 50 7.735z" data-fill-palette-color="accent"/>
        </svg>
      </g>
    </svg>
  </g>
</svg>