<svg xmlns="http://www.w3.org/2000/svg" version="1.1" xmlns:xlink="http://www.w3.org/1999/xlink" xmlns:svgjs="http://svgjs.dev/svgjs" width="1500" height="284" viewBox="0 0 1500 284"><g transform="matrix(1,0,0,1,-0.9090909090909918,-0.9027038258284108)"><svg viewBox="0 0 396 75" data-background-color="#ffffff" preserveAspectRatio="xMidYMid meet" height="284" width="1500" xmlns="http://www.w3.org/2000/svg" xmlns:xlink="http://www.w3.org/1999/xlink"><g id="tight-bounds" transform="matrix(1,0,0,1,0.2400000000000091,0.23839009484905205)"><svg viewBox="0 0 395.52 74.52321981030191" height="74.52321981030191" width="395.52"><g><svg viewBox="0 0 507.47010253994165 95.61667172011661" height="74.52321981030191" width="395.52"><g transform="matrix(1,0,0,1,111.95010253994168,13.214749854227406)"><svg viewBox="0 0 395.52 69.1871720116618" height="69.1871720116618" width="395.52"><g id="textblocktransform"><svg viewBox="0 0 395.52 69.1871720116618" height="69.1871720116618" width="395.52" id="textblock"><g><svg viewBox="0 0 395.52 69.1871720116618" height="69.1871720116618" width="395.52"><g transform="matrix(1,0,0,1,0,0)"><svg width="395.52" viewBox="2 -37 277.63 48" height="69.1871720116618" data-palette-color="#FFFFFF"><g class="wordmark-text-0" data-fill-palette-color="primary" id="text-0"><path d="M9.45 11L4.95 11 4.95-19.35Q4.95-21.05 4.13-21.78 3.3-22.5 2-22.5L2-22.5 2.95-26Q7.55-26 8.7-22.35L8.7-22.35Q9.2-23.1 10.33-24.1 11.45-25.1 13.13-25.85 14.8-26.6 16.95-26.6L16.95-26.6Q19.95-26.6 22.58-25.03 25.2-23.45 26.8-20.48 28.4-17.5 28.4-13.25L28.4-13.25Q28.4-9.1 26.8-5.98 25.2-2.85 22.63-1.13 20.05 0.6 17.05 0.6L17.05 0.6Q14.75 0.6 12.75-0.33 10.75-1.25 9.45-2.45L9.45-2.45 9.45 11ZM16.15-3.4L16.15-3.4Q19.55-3.4 21.68-6.08 23.8-8.75 23.8-13.1L23.8-13.1Q23.8-16.1 22.73-18.25 21.65-20.4 19.88-21.55 18.1-22.7 15.95-22.7L15.95-22.7Q13.8-22.7 12.08-21.63 10.35-20.55 9.45-19.3L9.45-19.3 9.45-6.5Q10.75-5.15 12.45-4.28 14.15-3.4 16.15-3.4ZM39.15 0L34.65 0 34.65-26 39-26 39-20.35Q39.65-22 40.75-23.43 41.85-24.85 43.5-25.73 45.15-26.6 47.35-26.6L47.35-26.6Q48.1-26.6 48.85-26.53 49.6-26.45 50.1-26.3L50.1-26.3 48.75-21.65Q47.8-22.05 46.5-22.05L46.5-22.05Q44.65-22.05 42.97-21 41.3-19.95 40.22-17.75 39.15-15.55 39.15-12.15L39.15-12.15 39.15 0ZM65.55 0.6L65.55 0.6Q61.85 0.6 58.9-1.13 55.95-2.85 54.27-5.93 52.6-9 52.6-13L52.6-13Q52.6-17.2 54.3-20.25 56-23.3 58.95-24.95 61.9-26.6 65.55-26.6L65.55-26.6Q69.2-26.6 72.12-24.95 75.05-23.3 76.77-20.28 78.5-17.25 78.5-13.1L78.5-13.1Q78.5-8.95 76.8-5.88 75.09-2.8 72.17-1.1 69.25 0.6 65.55 0.6ZM65.55-3.4L65.55-3.4Q69.5-3.4 71.7-6.08 73.9-8.75 73.9-13L73.9-13Q73.9-15.6 72.8-17.78 71.7-19.95 69.82-21.28 67.95-22.6 65.55-22.6L65.55-22.6Q61.6-22.6 59.4-20 57.2-17.4 57.2-13.1L57.2-13.1Q57.2-10.5 58.3-8.28 59.4-6.05 61.27-4.73 63.15-3.4 65.55-3.4ZM91.49 0.6L91.49 0.6Q88.54 0.6 86.17-0.15 83.79-0.9 82.24-2.1L82.24-2.1 84.14-5.85Q85.44-4.75 87.42-4.03 89.39-3.3 91.64-3.3L91.64-3.3Q94.44-3.3 95.87-4.23 97.29-5.15 97.29-6.6L97.29-6.6Q97.29-7.65 96.77-8.45 96.24-9.25 94.84-10.03 93.44-10.8 90.79-11.7L90.79-11.7Q87.14-12.95 85.32-14.68 83.49-16.4 83.49-19.45L83.49-19.45Q83.49-22.45 86.12-24.53 88.74-26.6 93.39-26.6L93.39-26.6Q95.89-26.6 97.84-26.08 99.79-25.55 101.34-24.75L101.34-24.75 100.09-21.05Q98.74-21.85 97.02-22.35 95.29-22.85 93.19-22.85L93.19-22.85Q90.59-22.85 89.24-21.8 87.89-20.75 87.89-19.5L87.89-19.5Q87.89-18.3 88.94-17.45 89.99-16.6 93.04-15.6L93.04-15.6Q97.99-13.95 99.94-11.95 101.89-9.95 101.89-6.95L101.89-6.95Q101.89-3.45 99.07-1.43 96.24 0.6 91.49 0.6ZM112.39 0L107.89 0 107.89-37 112.39-37 112.39-21.85Q113.79-23.9 115.94-25.25 118.09-26.6 120.99-26.6L120.99-26.6Q125.39-26.6 127.57-23.95 129.74-21.3 129.74-16.95L129.74-16.95 129.74 0 125.24 0 125.24-16.45Q125.24-19.25 123.94-20.95 122.64-22.65 120.29-22.65L120.29-22.65Q117.99-22.65 115.92-21.03 113.84-19.4 112.39-17.2L112.39-17.2 112.39 0ZM148.44 0.6L148.44 0.6Q144.74 0.6 141.79-1.13 138.84-2.85 137.16-5.93 135.49-9 135.49-13L135.49-13Q135.49-17.2 137.19-20.25 138.89-23.3 141.84-24.95 144.79-26.6 148.44-26.6L148.44-26.6Q152.09-26.6 155.01-24.95 157.94-23.3 159.66-20.28 161.39-17.25 161.39-13.1L161.39-13.1Q161.39-8.95 159.69-5.88 157.99-2.8 155.06-1.1 152.14 0.6 148.44 0.6ZM148.44-3.4L148.44-3.4Q152.39-3.4 154.59-6.08 156.79-8.75 156.79-13L156.79-13Q156.79-15.6 155.69-17.78 154.59-19.95 152.71-21.28 150.84-22.6 148.44-22.6L148.44-22.6Q144.49-22.6 142.29-20 140.09-17.4 140.09-13.1L140.09-13.1Q140.09-10.5 141.19-8.28 142.29-6.05 144.16-4.73 146.04-3.4 148.44-3.4ZM178.34 0.6L178.34 0.6Q174.64 0.6 171.69-1.13 168.74-2.85 167.06-5.93 165.39-9 165.39-13L165.39-13Q165.39-17.2 167.09-20.25 168.79-23.3 171.74-24.95 174.69-26.6 178.34-26.6L178.34-26.6Q181.99-26.6 184.91-24.95 187.84-23.3 189.56-20.28 191.29-17.25 191.29-13.1L191.29-13.1Q191.29-8.95 189.59-5.88 187.89-2.8 184.96-1.1 182.04 0.6 178.34 0.6ZM178.34-3.4L178.34-3.4Q182.29-3.4 184.49-6.08 186.69-8.75 186.69-13L186.69-13Q186.69-15.6 185.59-17.78 184.49-19.95 182.61-21.28 180.74-22.6 178.34-22.6L178.34-22.6Q174.39-22.6 172.19-20 169.99-17.4 169.99-13.1L169.99-13.1Q169.99-10.5 171.09-8.28 172.19-6.05 174.06-4.73 175.94-3.4 178.34-3.4ZM206.38 0.6L206.38 0.6Q202.63 0.6 200.46-1.88 198.28-4.35 198.28-8.95L198.28-8.95 198.28-21.15 193.78-21.15 193.78-25.05 198.38-25.05 199.33-33.25 202.78-33.25 202.78-25.05 209.98-25.05 209.98-21.15 202.78-21.15 202.78-8.6Q202.78-5.7 204.01-4.55 205.23-3.4 206.93-3.4L206.93-3.4Q208.18-3.4 209.31-3.8 210.43-4.2 211.38-4.75L211.38-4.75 212.63-1.15Q211.63-0.55 209.93 0.03 208.23 0.6 206.38 0.6ZM220.63 0.6L220.63 0.6Q219.28 0.6 218.28-0.4 217.28-1.4 217.28-2.75L217.28-2.75Q217.28-4.3 218.18-5.2 219.08-6.1 220.63-6.1L220.63-6.1Q221.93-6.1 222.96-5.1 223.98-4.1 223.98-2.75L223.98-2.75Q223.98-1.25 223.03-0.33 222.08 0.6 220.63 0.6ZM242.63 0.6L242.63 0.6Q238.93 0.6 236.15-1.13 233.38-2.85 231.88-5.93 230.38-9 230.38-13L230.38-13Q230.38-16.75 231.9-19.85 233.43-22.95 236.28-24.78 239.13-26.6 242.98-26.6L242.98-26.6Q245.18-26.6 246.85-26.2 248.53-25.8 250.08-25.05L250.08-25.05 248.73-21.25Q247.33-21.95 246.05-22.28 244.78-22.6 243.23-22.6L243.23-22.6Q239.73-22.6 237.35-20.08 234.98-17.55 234.98-13.1L234.98-13.1Q234.98-10.4 235.98-8.2 236.98-6 238.75-4.7 240.53-3.4 242.93-3.4L242.93-3.4Q244.83-3.4 246.18-3.83 247.53-4.25 249.08-5.05L249.08-5.05 250.48-1.25Q248.93-0.4 247 0.1 245.08 0.6 242.63 0.6ZM266.68 0.6L266.68 0.6Q262.98 0.6 260.03-1.13 257.08-2.85 255.4-5.93 253.73-9 253.73-13L253.73-13Q253.73-17.2 255.43-20.25 257.13-23.3 260.08-24.95 263.03-26.6 266.68-26.6L266.68-26.6Q270.33-26.6 273.25-24.95 276.18-23.3 277.9-20.28 279.63-17.25 279.63-13.1L279.63-13.1Q279.63-8.95 277.93-5.88 276.23-2.8 273.3-1.1 270.38 0.6 266.68 0.6ZM266.68-3.4L266.68-3.4Q270.63-3.4 272.83-6.08 275.03-8.75 275.03-13L275.03-13Q275.03-15.6 273.93-17.78 272.83-19.95 270.95-21.28 269.08-22.6 266.68-22.6L266.68-22.6Q262.73-22.6 260.53-20 258.33-17.4 258.33-13.1L258.33-13.1Q258.33-10.5 259.43-8.28 260.53-6.05 262.4-4.73 264.28-3.4 266.68-3.4Z" fill="#FFFFFF" data-fill-palette-color="primary"></path></g></svg></g></svg></g></svg></g></svg></g><g><svg viewBox="0 0 95.61667172011661 95.61667172011661" height="95.61667172011661" width="95.61667172011661"><g><svg xmlns="http://www.w3.org/2000/svg" xmlns:xlink="http://www.w3.org/1999/xlink" version="1.1" x="0" y="0" viewBox="5 5 90 90" enable-background="new 0 0 100 100" xml:space="preserve" height="95.61667172011661" width="95.61667172011661" class="icon-icon-0" data-fill-palette-color="accent" id="icon-0"><path fill="#FFFFFF" d="M23.044 60.786c4.996 0.757 13.474 1.356 22.079-1.112l-0.531-0.307c-4.937-2.85-9.354-6.844-13.126-11.87-3.144-4.188-5.778-8.989-7.828-14.27-1.228-3.163-2.185-6.377-2.829-9.333-6.2 6.928-9.972 16.076-9.972 26.105 0 2.694 0.272 5.325 0.79 7.866C14.496 58.962 18.357 60.076 23.044 60.786z" data-fill-palette-color="accent"></path><path fill="#FFFFFF" d="M27.181 32.049c1.843 4.705 5.563 12.347 12.002 18.565V50c0-13.993 7.619-25.564 12.16-31.217 2.127-2.648 4.435-5.086 6.676-7.124-2.589-0.539-5.271-0.823-8.02-0.823-9.977 0-19.081 3.733-25.996 9.876C24.489 23.743 25.454 27.64 27.181 32.049z" data-fill-palette-color="accent"></path><path fill="#FFFFFF" d="M54.137 21.263c-3.153 3.948-7.911 10.991-10.076 19.677l0.531-0.307c12.118-6.996 25.949-6.184 33.114-5.077 3.357 0.519 6.624 1.298 9.509 2.221C83.359 26.03 74.1 16.736 62.376 12.834 59.991 14.77 57.095 17.558 54.137 21.263z" data-fill-palette-color="accent"></path><path fill="#FFFFFF" d="M76.956 39.214c-4.996-0.757-13.474-1.356-22.079 1.112l0.532 0.307c4.937 2.85 9.354 6.844 13.126 11.87 3.144 4.188 5.778 8.989 7.828 14.27 1.228 3.163 2.185 6.377 2.829 9.334 6.2-6.929 9.972-16.076 9.972-26.105 0-2.694-0.272-5.325-0.791-7.866C85.505 41.038 81.643 39.924 76.956 39.214z" data-fill-palette-color="accent"></path><path fill="#FFFFFF" d="M72.819 67.951c-1.843-4.705-5.563-12.347-12.002-18.565V50c0 13.993-7.619 25.564-12.16 31.217-2.127 2.648-4.435 5.086-6.676 7.124 2.589 0.539 5.271 0.823 8.02 0.823 9.977 0 19.081-3.733 25.997-9.876C75.511 76.257 74.546 72.36 72.819 67.951z" data-fill-palette-color="accent"></path><path fill="#FFFFFF" d="M45.863 78.737c3.153-3.948 7.911-10.991 10.076-19.677l-0.531 0.307c-7.918 4.571-16.567 5.809-23.611 5.809-3.736 0-7.02-0.348-9.504-0.732-3.357-0.519-6.624-1.298-9.509-2.221 3.856 11.746 13.115 21.04 24.84 24.942C40.008 85.23 42.905 82.442 45.863 78.737z" data-fill-palette-color="accent"></path><path fill="#FFFFFF" d="M50 95C25.187 95 5 74.813 5 50S25.187 5 50 5s45 20.187 45 45S74.813 95 50 95zM50 7.735C26.695 7.735 7.735 26.695 7.735 50S26.695 92.265 50 92.265 92.265 73.305 92.265 50 73.305 7.735 50 7.735z" data-fill-palette-color="accent"></path></svg></g></svg></g></svg></g><defs></defs></svg><rect width="395.52" height="74.52321981030191" fill="none" stroke="none" visibility="hidden"></rect></g></svg></g></svg>