<?xml version="1.0" encoding="utf-8"?>
<!-- Generator: Adobe Illustrator 25.0.1, SVG Export Plug-In . SVG Version: 6.00 Build 0)  -->
<svg version="1.0" id="katman_1" xmlns="http://www.w3.org/2000/svg" xmlns:xlink="http://www.w3.org/1999/xlink" x="0px" y="0px"
	 viewBox="0 0 560 400" style="enable-background:new 0 0 560 400;" xml:space="preserve">
<style type="text/css">
	.st0{fill:#FFFFFF;}
</style>
<g transform="matrix(2.02247 0 0 2.02247 97.9775 141.524)">
	<path d="M114.9-4c-7,0.4-13.4,2.8-18.6,5.1c-1.5,0.6-4,2.5-5.4,2.6c-1.6,0.1-4.6-1.6-6.9-2.2c-9.8-2.8-24.8-6.5-32.5-0.6
		c-9.6-1.4-18.5,1-25.8,3.2C25.4-1.7,20-5.2,13.7-3.4C9.5-2.2,6.1,0.2,1.8,1.8c-8.3,3.2-16.7,10-16.1,20.8c0.3,5.1,2.5,9.2,3.9,12.8
		c1.5,3.8,3.1,6.8,5.6,11.1c-0.7,1.3-1.3,2.1-1.5,3.5c-1.6,12.1,14.5,12.5,23,8.9c7.3-3.1,15-8.5,20.2-12.4
		c-4.2,17.9,23.9,18.6,31,9.7c10,7.5,31.6,6.6,42.3,0.4c9.9,8,31.8,4.9,45.1,1.9c6.9-1.6,13-2.9,17.4-6.1c4.6-3.3,7.5-8.5,8.7-15
		c-0.9-2.5-2.6-4.4-4.1-6.3c0.8-1.6,1-4.5,0.6-6.7c5.8-4.2,10.7-10.7,15-16.1c0.5-0.7,1.5-1.5,1.3-2.4c-19.9-3.1-39.1-9.3-62.2-8.2
		c-1.5,0.1-3.1,0.5-4.5,0.4c-2-0.2-3.7-1.2-5.6-1.5C119.6-4,117.2-4.1,114.9-4L114.9-4z"/>
	<path class="st0" d="M116.1,3.3c-9,0.2-17.4,4.7-24.1,8.3c-7.1,3.9-13.4,8.4-17.8,13c1.6-2.7,3.3-5.4,5.2-8
		c1.9-2.6,4.1-4.9,5.8-7.2c-3.7-1-7.4-2-11.1-2.8c-5.3-1.1-12.7-3-17.1-0.6c-1.3,0.7-2.3,2.4-3.5,2.6c-1,0.1-2.7-0.6-3.9-0.7
		C45,7.4,40.8,7.9,36.7,8.7c-3.8,0.8-12,2.1-13,5.8c-0.7,2.3,0.8,4.6,0.6,6.9c-0.3,2.3-2.4,5.2-3.5,7c-1.3,2.2-2.7,4.2-5,5.2
		c-1.4-6.9,0.1-13.1,1.3-18.9C17.8,11,19.3,7.3,18,3.7C14.5,3.2,11.5,6,8,7.4C1.4,10-5.9,12.4-6.9,20c-0.5,4.3,1.1,7,2.2,10
		c2.5,6.5,5.5,12,9.1,17.1c-1,1.8-3.3,2.3-3.5,4.8c1,1.5,3.2,1.7,5.4,1.7c6.2,0,11.3-3.1,16-5.8c10.1-5.7,16.8-14.4,23.9-22.6
		c1.2-1.5,2.3-3.2,3.9-4.1c1.6,7.3-1.5,11.2-3.7,17.3c-0.9,2.3-3.5,9.6-2.2,13c1.4,3.8,13.6,3.9,16.9,1.5c1.6-1.2,2.3-4,3.2-5.8
		c1.1-2.2,2.1-4.2,3-6.1c0.1,8.1,6.1,10.5,12.6,12.2c13.9,3.7,27.9-2.9,35.4-7.4c-0.9,6,1.4,6.6,6.1,7.6c12.2,2.5,24.6-0.4,34.5-2.8
		c9.1-2.2,16.5-3.8,17.8-12.8c-1.5-1.3-5.1-1.1-7.6-0.7c-7.4,1.1-14.5,4.8-24.3,4.1c-1.8-0.1-5.7-0.8-5.9-1.9
		c-0.4-1.7,2.6-2.9,5.2-3.3c7.4-1.2,18,0,23.9-2.2c2.8-1.1,6.3-4.2,5.9-7.6c-0.2-2.3-3.2-3.5-6.1-3.7c-8.1-0.5-13.9,4.2-22.5,2.6
		c1.1-1.3,1.3-3.6,2.6-4.6c6.2-0.1,12.3,1.1,18.2,0.7c8.2-0.5,12.8-4,16.7-8.5c0.4-0.5,1.5-1,1.1-1.9c-14.2-2.2-33.7-7.9-51.2-5.8
		c-2.3,0.3-3.9,2.6-5.4,3.6c0,0,0,0,0-0.1c0.3-1.3,0.8-2.3,0.9-3.7C122.2,3.7,119.1,3.3,116.1,3.3L116.1,3.3z M123,12.4
		c1.7,2,5.5,1.9,7.8,3.3c-3,0.8-6.9,0.8-9.7,1.9C121.8,15.9,122.4,14.1,123,12.4z M101.5,19.3c-0.9,4.2-2.8,8.9-3.9,13.5
		c5.9,0.1,12.1-1.1,18.2-1.5c0.8-1.1,1.2-2.6,1.7-4.1c1.2,1.7,2.1,4.9,0.9,7.4c-9.2-0.1-15.8,7.4-24.9,7.4c-4,0-7.5-2.3-5.6-6.9
		C90.7,28.8,97.4,24.3,101.5,19.3L101.5,19.3z"/>
</g>
</svg>
